<svg xmlns="http://www.w3.org/2000/svg" viewBox="0 0 512 512">
  <!-- Lime background with rounded corners - using app's lime-500: #d4ff00 -->
  <rect width="512" height="512" rx="96" fill="#d4ff00"/>

  <!-- M icon mark - using same viewBox approach as the component -->
  <svg x="48" y="48" width="416" height="416" viewBox="270 220 480 420">
    <!-- Main M shape -->
    <path
      fill="#0a0a0a"
      d="M399.62 366.53
        L399.62 584.66
        A0.37 0.37 0 0 1 399.25 585.03
        L322.67 585.03
        A0.39 0.38 90 0 1 322.29 584.64
        L322.29 270.69
        A0.78 0.78 0 0 1 323.07 269.91
        L408.26 269.91
        A3.49 3.47 67.2 0 1 410.71 270.92
        L511.46 370.70
        A0.85 0.84 -44.8 0 0 512.65 370.70
        Q532.70 350.69 613.26 270.76
        Q614.19 269.84 617.02 269.85
        Q664.06 270.02 701.05 269.90
        A0.63 0.63 0 0 1 701.68 270.53
        L701.68 476.26
        A0.55 0.55 0 0 1 701.13 476.81
        L625.06 476.81
        A0.78 0.78 0 0 1 624.28 476.03
        L624.28 365.87
        A0.20 0.20 0 0 0 623.94 365.73
        Q579.45 410.20 514.33 475.38
        Q514.26 475.46 513.46 476.40
        Q512.21 477.89 510.78 476.47
        Q454.81 420.56 400.05 366.35
        A0.25 0.25 0 0 0 399.62 366.53
        Z"
    />
    <!-- Bottom bar -->
    <path
      fill="#0a0a0a"
      d="M701.67 505.34
        L701.67 584.71
        A0.32 0.32 0 0 1 701.35 585.03
        L406.69 585.03
        A0.32 0.32 0 0 1 406.47 584.48
        L485.84 505.11
        A0.32 0.32 0 0 1 486.06 505.02
        L701.35 505.02
        A0.32 0.32 0 0 1 701.67 505.34
        Z"
    />
  </svg>
</svg>
