<?xml version="1.0" encoding="UTF-8" standalone="no"?>
<!DOCTYPE svg PUBLIC "-//W3C//DTD SVG 1.1//EN" "http://www.w3.org/Graphics/SVG/1.1/DTD/svg11.dtd">
<svg xmlns="http://www.w3.org/2000/svg" version="1.1" viewBox="0.00 0.00 1024.00 1024.00">
<g stroke-width="2.00" fill="none" stroke-linecap="butt">
<path stroke="#868585" vector-effect="non-scaling-stroke" d="
  M 399.62 366.53
  A 0.25 0.25 0.0 0 1 400.05 366.35
  Q 454.81 420.56 510.78 476.47
  Q 512.21 477.89 513.46 476.40
  Q 514.26 475.46 514.33 475.38
  Q 579.45 410.20 623.94 365.73
  A 0.20 0.20 0.0 0 1 624.28 365.87
  L 624.28 476.03
  A 0.78 0.78 0.0 0 0 625.06 476.81
  L 701.13 476.81
  A 0.55 0.55 0.0 0 0 701.68 476.26
  L 701.68 270.53
  A 0.63 0.63 0.0 0 0 701.05 269.90
  Q 664.06 270.02 617.02 269.85
  Q 614.19 269.84 613.26 270.76
  Q 532.70 350.69 512.65 370.70
  A 0.85 0.84 -44.8 0 1 511.46 370.70
  L 410.71 270.92
  A 3.49 3.47 67.2 0 0 408.26 269.91
  L 323.07 269.91
  A 0.78 0.78 0.0 0 0 322.29 270.69
  L 322.29 584.64
  A 0.39 0.38 90.0 0 0 322.67 585.03
  L 399.25 585.03
  A 0.37 0.37 0.0 0 0 399.62 584.66
  L 399.62 366.53"
/>
<path stroke="#868585" vector-effect="non-scaling-stroke" d="
  M 701.67 505.34
  A 0.32 0.32 0.0 0 0 701.35 505.02
  L 486.06 505.02
  A 0.32 0.32 0.0 0 0 485.84 505.11
  L 406.47 584.48
  A 0.32 0.32 0.0 0 0 406.69 585.03
  L 701.35 585.03
  A 0.32 0.32 0.0 0 0 701.67 584.71
  L 701.67 505.34"
/>
<path stroke="#868585" vector-effect="non-scaling-stroke" d="
  M 354.25 747.87
  Q 362.04 747.76 367.45 746.42
  C 386.44 741.74 402.35 725.81 404.59 705.81
  C 407.18 682.84 398.16 662.78 376.65 652.39
  C 368.78 648.60 361.09 647.37 352.53 647.48
  Q 344.74 647.59 339.33 648.93
  C 320.34 653.61 304.43 669.54 302.19 689.54
  C 299.60 712.51 308.62 732.57 330.14 742.95
  C 338.00 746.75 345.70 747.98 354.25 747.87"
/>
<path stroke="#868585" vector-effect="non-scaling-stroke" d="
  M 425.58 649.57
  L 425.42 745.49
  A 0.25 0.25 0.0 0 0 425.67 745.74
  L 463.75 745.81
  A 51.55 45.15 0.1 0 0 515.37 700.75
  L 515.39 694.63
  A 51.55 45.15 0.1 0 0 463.91 649.39
  L 425.83 649.32
  A 0.25 0.25 0.0 0 0 425.58 649.57"
/>
<path stroke="#868585" vector-effect="non-scaling-stroke" d="
  M 602.14 746.08
  A 0.36 0.36 0.0 0 0 602.50 745.72
  L 602.50 727.39
  A 0.36 0.36 0.0 0 0 602.14 727.03
  L 558.45 727.03
  A 0.36 0.36 0.0 0 1 558.09 726.67
  L 558.09 649.53
  A 0.36 0.36 0.0 0 0 557.73 649.17
  L 536.53 649.17
  A 0.36 0.36 0.0 0 0 536.17 649.53
  L 536.17 745.72
  A 0.36 0.36 0.0 0 0 536.53 746.08
  L 602.14 746.08"
/>
<path stroke="#868585" vector-effect="non-scaling-stroke" d="
  M 646.38 649.53
  A 0.35 0.35 0.0 0 0 646.03 649.18
  L 624.95 649.18
  A 0.35 0.35 0.0 0 0 624.60 649.53
  L 624.60 745.75
  A 0.35 0.35 0.0 0 0 624.95 746.10
  L 646.03 746.10
  A 0.35 0.35 0.0 0 0 646.38 745.75
  L 646.38 649.53"
/>
<path stroke="#868585" vector-effect="non-scaling-stroke" d="
  M 261.46 684.86
  C 261.57 685.37 261.10 688.03 261.13 689.74
  Q 261.69 718.17 262.04 745.48
  A 0.65 0.64 89.5 0 0 262.68 746.12
  L 281.75 746.12
  A 0.29 0.29 0.0 0 0 282.04 745.83
  L 282.04 649.97
  A 0.79 0.78 -0.0 0 0 281.25 649.19
  L 259.09 649.19
  A 1.47 1.47 0.0 0 0 257.78 649.99
  L 231.68 701.43
  A 0.36 0.36 0.0 0 1 231.03 701.43
  L 205.91 649.80
  A 1.08 1.07 -12.6 0 0 204.94 649.19
  L 181.25 649.19
  A 0.33 0.33 0.0 0 0 180.92 649.52
  L 180.92 745.51
  A 0.59 0.59 0.0 0 0 181.51 746.10
  L 200.54 746.10
  A 0.52 0.52 0.0 0 0 201.06 745.58
  L 201.06 686.33
  A 0.27 0.27 0.0 0 1 201.58 686.21
  L 224.50 733.34
  A 1.57 1.57 0.0 0 0 225.91 734.22
  L 236.92 734.22
  A 0.97 0.96 -77.4 0 0 237.79 733.66
  Q 246.78 714.19 259.33 688.07
  Q 259.77 687.15 259.95 686.33
  Q 260.23 685.00 260.81 684.61
  A 0.42 0.42 0.0 0 1 261.46 684.86"
/>
<path stroke="#868585" vector-effect="non-scaling-stroke" d="
  M 693.85 710.19
  A 0.56 0.56 0.0 0 1 694.41 709.63
  L 732.45 709.63
  A 0.56 0.56 0.0 0 0 733.01 709.07
  L 733.01 690.57
  A 0.56 0.56 0.0 0 0 732.45 690.01
  L 694.41 690.01
  A 0.56 0.56 0.0 0 1 693.85 689.45
  L 693.85 668.59
  A 0.56 0.56 0.0 0 1 694.41 668.03
  L 738.48 668.03
  A 0.56 0.56 0.0 0 0 739.04 667.47
  L 739.04 649.74
  A 0.56 0.56 0.0 0 0 738.48 649.18
  L 672.53 649.18
  A 0.56 0.56 0.0 0 0 671.97 649.74
  L 671.97 745.55
  A 0.56 0.56 0.0 0 0 672.53 746.11
  L 693.29 746.11
  A 0.56 0.56 0.0 0 0 693.85 745.55
  L 693.85 710.19"
/>
<path stroke="#868585" vector-effect="non-scaling-stroke" d="
  M 757.98 649.20
  A 0.35 0.35 0.0 0 0 757.63 649.55
  L 757.63 668.33
  A 0.35 0.35 0.0 0 0 757.98 668.68
  L 787.62 668.68
  A 0.35 0.35 0.0 0 1 787.97 669.03
  L 787.97 745.76
  A 0.35 0.35 0.0 0 0 788.32 746.11
  L 809.12 746.11
  A 0.35 0.35 0.0 0 0 809.47 745.76
  L 809.47 669.04
  A 0.35 0.35 0.0 0 1 809.82 668.69
  L 838.65 668.69
  A 0.35 0.35 0.0 0 0 839.00 668.34
  L 839.00 649.55
  A 0.35 0.35 0.0 0 0 838.65 649.20
  L 757.98 649.20"
/>
<path stroke="#868585" vector-effect="non-scaling-stroke" d="
  M 324.37 699.39
  C 325.36 716.74 336.79 729.66 355.04 728.62
  C 373.30 727.58 383.19 713.46 382.20 696.10
  C 381.22 678.74 369.79 665.83 351.53 666.86
  C 333.28 667.90 323.39 682.03 324.37 699.39"
/>
<path stroke="#868585" vector-effect="non-scaling-stroke" d="
  M 446.87 668.96
  L 447.17 726.56
  A 0.28 0.28 0.0 0 0 447.45 726.84
  L 462.88 726.76
  A 29.51 26.13 -0.3 0 0 492.26 700.47
  L 492.22 694.57
  A 29.51 26.13 -0.3 0 0 462.58 668.60
  L 447.15 668.68
  A 0.28 0.28 0.0 0 0 446.87 668.96"
/>
</g>
<path fill="#fbfafa" d="
  M 1024.00 0.00
  L 1024.00 1024.00
  L 0.00 1024.00
  L 0.00 0.00
  L 1024.00 0.00
  Z
  M 399.62 366.53
  A 0.25 0.25 0.0 0 1 400.05 366.35
  Q 454.81 420.56 510.78 476.47
  Q 512.21 477.89 513.46 476.40
  Q 514.26 475.46 514.33 475.38
  Q 579.45 410.20 623.94 365.73
  A 0.20 0.20 0.0 0 1 624.28 365.87
  L 624.28 476.03
  A 0.78 0.78 0.0 0 0 625.06 476.81
  L 701.13 476.81
  A 0.55 0.55 0.0 0 0 701.68 476.26
  L 701.68 270.53
  A 0.63 0.63 0.0 0 0 701.05 269.90
  Q 664.06 270.02 617.02 269.85
  Q 614.19 269.84 613.26 270.76
  Q 532.70 350.69 512.65 370.70
  A 0.85 0.84 -44.8 0 1 511.46 370.70
  L 410.71 270.92
  A 3.49 3.47 67.2 0 0 408.26 269.91
  L 323.07 269.91
  A 0.78 0.78 0.0 0 0 322.29 270.69
  L 322.29 584.64
  A 0.39 0.38 90.0 0 0 322.67 585.03
  L 399.25 585.03
  A 0.37 0.37 0.0 0 0 399.62 584.66
  L 399.62 366.53
  Z
  M 701.67 505.34
  A 0.32 0.32 0.0 0 0 701.35 505.02
  L 486.06 505.02
  A 0.32 0.32 0.0 0 0 485.84 505.11
  L 406.47 584.48
  A 0.32 0.32 0.0 0 0 406.69 585.03
  L 701.35 585.03
  A 0.32 0.32 0.0 0 0 701.67 584.71
  L 701.67 505.34
  Z
  M 354.25 747.87
  Q 362.04 747.76 367.45 746.42
  C 386.44 741.74 402.35 725.81 404.59 705.81
  C 407.18 682.84 398.16 662.78 376.65 652.39
  C 368.78 648.60 361.09 647.37 352.53 647.48
  Q 344.74 647.59 339.33 648.93
  C 320.34 653.61 304.43 669.54 302.19 689.54
  C 299.60 712.51 308.62 732.57 330.14 742.95
  C 338.00 746.75 345.70 747.98 354.25 747.87
  Z
  M 425.58 649.57
  L 425.42 745.49
  A 0.25 0.25 0.0 0 0 425.67 745.74
  L 463.75 745.81
  A 51.55 45.15 0.1 0 0 515.37 700.75
  L 515.39 694.63
  A 51.55 45.15 0.1 0 0 463.91 649.39
  L 425.83 649.32
  A 0.25 0.25 0.0 0 0 425.58 649.57
  Z
  M 602.14 746.08
  A 0.36 0.36 0.0 0 0 602.50 745.72
  L 602.50 727.39
  A 0.36 0.36 0.0 0 0 602.14 727.03
  L 558.45 727.03
  A 0.36 0.36 0.0 0 1 558.09 726.67
  L 558.09 649.53
  A 0.36 0.36 0.0 0 0 557.73 649.17
  L 536.53 649.17
  A 0.36 0.36 0.0 0 0 536.17 649.53
  L 536.17 745.72
  A 0.36 0.36 0.0 0 0 536.53 746.08
  L 602.14 746.08
  Z
  M 646.38 649.53
  A 0.35 0.35 0.0 0 0 646.03 649.18
  L 624.95 649.18
  A 0.35 0.35 0.0 0 0 624.60 649.53
  L 624.60 745.75
  A 0.35 0.35 0.0 0 0 624.95 746.10
  L 646.03 746.10
  A 0.35 0.35 0.0 0 0 646.38 745.75
  L 646.38 649.53
  Z
  M 261.46 684.86
  C 261.57 685.37 261.10 688.03 261.13 689.74
  Q 261.69 718.17 262.04 745.48
  A 0.65 0.64 89.5 0 0 262.68 746.12
  L 281.75 746.12
  A 0.29 0.29 0.0 0 0 282.04 745.83
  L 282.04 649.97
  A 0.79 0.78 -0.0 0 0 281.25 649.19
  L 259.09 649.19
  A 1.47 1.47 0.0 0 0 257.78 649.99
  L 231.68 701.43
  A 0.36 0.36 0.0 0 1 231.03 701.43
  L 205.91 649.80
  A 1.08 1.07 -12.6 0 0 204.94 649.19
  L 181.25 649.19
  A 0.33 0.33 0.0 0 0 180.92 649.52
  L 180.92 745.51
  A 0.59 0.59 0.0 0 0 181.51 746.10
  L 200.54 746.10
  A 0.52 0.52 0.0 0 0 201.06 745.58
  L 201.06 686.33
  A 0.27 0.27 0.0 0 1 201.58 686.21
  L 224.50 733.34
  A 1.57 1.57 0.0 0 0 225.91 734.22
  L 236.92 734.22
  A 0.97 0.96 -77.4 0 0 237.79 733.66
  Q 246.78 714.19 259.33 688.07
  Q 259.77 687.15 259.95 686.33
  Q 260.23 685.00 260.81 684.61
  A 0.42 0.42 0.0 0 1 261.46 684.86
  Z
  M 693.85 710.19
  A 0.56 0.56 0.0 0 1 694.41 709.63
  L 732.45 709.63
  A 0.56 0.56 0.0 0 0 733.01 709.07
  L 733.01 690.57
  A 0.56 0.56 0.0 0 0 732.45 690.01
  L 694.41 690.01
  A 0.56 0.56 0.0 0 1 693.85 689.45
  L 693.85 668.59
  A 0.56 0.56 0.0 0 1 694.41 668.03
  L 738.48 668.03
  A 0.56 0.56 0.0 0 0 739.04 667.47
  L 739.04 649.74
  A 0.56 0.56 0.0 0 0 738.48 649.18
  L 672.53 649.18
  A 0.56 0.56 0.0 0 0 671.97 649.74
  L 671.97 745.55
  A 0.56 0.56 0.0 0 0 672.53 746.11
  L 693.29 746.11
  A 0.56 0.56 0.0 0 0 693.85 745.55
  L 693.85 710.19
  Z
  M 757.98 649.20
  A 0.35 0.35 0.0 0 0 757.63 649.55
  L 757.63 668.33
  A 0.35 0.35 0.0 0 0 757.98 668.68
  L 787.62 668.68
  A 0.35 0.35 0.0 0 1 787.97 669.03
  L 787.97 745.76
  A 0.35 0.35 0.0 0 0 788.32 746.11
  L 809.12 746.11
  A 0.35 0.35 0.0 0 0 809.47 745.76
  L 809.47 669.04
  A 0.35 0.35 0.0 0 1 809.82 668.69
  L 838.65 668.69
  A 0.35 0.35 0.0 0 0 839.00 668.34
  L 839.00 649.55
  A 0.35 0.35 0.0 0 0 838.65 649.20
  L 757.98 649.20
  Z"
/>
<path fill="#101010" d="
  M 399.62 366.53
  L 399.62 584.66
  A 0.37 0.37 0.0 0 1 399.25 585.03
  L 322.67 585.03
  A 0.39 0.38 90.0 0 1 322.29 584.64
  L 322.29 270.69
  A 0.78 0.78 0.0 0 1 323.07 269.91
  L 408.26 269.91
  A 3.49 3.47 67.2 0 1 410.71 270.92
  L 511.46 370.70
  A 0.85 0.84 -44.8 0 0 512.65 370.70
  Q 532.70 350.69 613.26 270.76
  Q 614.19 269.84 617.02 269.85
  Q 664.06 270.02 701.05 269.90
  A 0.63 0.63 0.0 0 1 701.68 270.53
  L 701.68 476.26
  A 0.55 0.55 0.0 0 1 701.13 476.81
  L 625.06 476.81
  A 0.78 0.78 0.0 0 1 624.28 476.03
  L 624.28 365.87
  A 0.20 0.20 0.0 0 0 623.94 365.73
  Q 579.45 410.20 514.33 475.38
  Q 514.26 475.46 513.46 476.40
  Q 512.21 477.89 510.78 476.47
  Q 454.81 420.56 400.05 366.35
  A 0.25 0.25 0.0 0 0 399.62 366.53
  Z"
/>
<path fill="#101010" d="
  M 701.67 505.34
  L 701.67 584.71
  A 0.32 0.32 0.0 0 1 701.35 585.03
  L 406.69 585.03
  A 0.32 0.32 0.0 0 1 406.47 584.48
  L 485.84 505.11
  A 0.32 0.32 0.0 0 1 486.06 505.02
  L 701.35 505.02
  A 0.32 0.32 0.0 0 1 701.67 505.34
  Z"
/>
<path fill="#101010" d="
  M 354.25 747.87
  C 345.70 747.98 338.00 746.75 330.14 742.95
  C 308.62 732.57 299.60 712.51 302.19 689.54
  C 304.43 669.54 320.34 653.61 339.33 648.93
  Q 344.74 647.59 352.53 647.48
  C 361.09 647.37 368.78 648.60 376.65 652.39
  C 398.16 662.78 407.18 682.84 404.59 705.81
  C 402.35 725.81 386.44 741.74 367.45 746.42
  Q 362.04 747.76 354.25 747.87
  Z
  M 324.37 699.39
  C 325.36 716.74 336.79 729.66 355.04 728.62
  C 373.30 727.58 383.19 713.46 382.20 696.10
  C 381.22 678.74 369.79 665.83 351.53 666.86
  C 333.28 667.90 323.39 682.03 324.37 699.39
  Z"
/>
<path fill="#101010" d="
  M 425.58 649.57
  A 0.25 0.25 0.0 0 1 425.83 649.32
  L 463.91 649.39
  A 51.55 45.15 0.1 0 1 515.39 694.63
  L 515.37 700.75
  A 51.55 45.15 0.1 0 1 463.75 745.81
  L 425.67 745.74
  A 0.25 0.25 0.0 0 1 425.42 745.49
  L 425.58 649.57
  Z
  M 446.87 668.96
  L 447.17 726.56
  A 0.28 0.28 0.0 0 0 447.45 726.84
  L 462.88 726.76
  A 29.51 26.13 -0.3 0 0 492.26 700.47
  L 492.22 694.57
  A 29.51 26.13 -0.3 0 0 462.58 668.60
  L 447.15 668.68
  A 0.28 0.28 0.0 0 0 446.87 668.96
  Z"
/>
<path fill="#101010" d="
  M 602.14 746.08
  L 536.53 746.08
  A 0.36 0.36 0.0 0 1 536.17 745.72
  L 536.17 649.53
  A 0.36 0.36 0.0 0 1 536.53 649.17
  L 557.73 649.17
  A 0.36 0.36 0.0 0 1 558.09 649.53
  L 558.09 726.67
  A 0.36 0.36 0.0 0 0 558.45 727.03
  L 602.14 727.03
  A 0.36 0.36 0.0 0 1 602.50 727.39
  L 602.50 745.72
  A 0.36 0.36 0.0 0 1 602.14 746.08
  Z"
/>
<rect fill="#101010" x="624.60" y="649.18" width="21.78" height="96.92" rx="0.35"/>
<path fill="#101010" d="
  M 260.81 684.61
  Q 260.23 685.00 259.95 686.33
  Q 259.77 687.15 259.33 688.07
  Q 246.78 714.19 237.79 733.66
  A 0.97 0.96 -77.4 0 1 236.92 734.22
  L 225.91 734.22
  A 1.57 1.57 0.0 0 1 224.50 733.34
  L 201.58 686.21
  A 0.27 0.27 0.0 0 0 201.06 686.33
  L 201.06 745.58
  A 0.52 0.52 0.0 0 1 200.54 746.10
  L 181.51 746.10
  A 0.59 0.59 0.0 0 1 180.92 745.51
  L 180.92 649.52
  A 0.33 0.33 0.0 0 1 181.25 649.19
  L 204.94 649.19
  A 1.08 1.07 -12.6 0 1 205.91 649.80
  L 231.03 701.43
  A 0.36 0.36 0.0 0 0 231.68 701.43
  L 257.78 649.99
  A 1.47 1.47 0.0 0 1 259.09 649.19
  L 281.25 649.19
  A 0.79 0.78 0.0 0 1 282.04 649.97
  L 282.04 745.83
  A 0.29 0.29 0.0 0 1 281.75 746.12
  L 262.68 746.12
  A 0.65 0.64 89.5 0 1 262.04 745.48
  Q 261.69 718.17 261.13 689.74
  C 261.10 688.03 261.57 685.37 261.46 684.86
  A 0.42 0.42 0.0 0 0 260.81 684.61
  Z"
/>
<path fill="#101010" d="
  M 693.85 710.19
  L 693.85 745.55
  A 0.56 0.56 0.0 0 1 693.29 746.11
  L 672.53 746.11
  A 0.56 0.56 0.0 0 1 671.97 745.55
  L 671.97 649.74
  A 0.56 0.56 0.0 0 1 672.53 649.18
  L 738.48 649.18
  A 0.56 0.56 0.0 0 1 739.04 649.74
  L 739.04 667.47
  A 0.56 0.56 0.0 0 1 738.48 668.03
  L 694.41 668.03
  A 0.56 0.56 0.0 0 0 693.85 668.59
  L 693.85 689.45
  A 0.56 0.56 0.0 0 0 694.41 690.01
  L 732.45 690.01
  A 0.56 0.56 0.0 0 1 733.01 690.57
  L 733.01 709.07
  A 0.56 0.56 0.0 0 1 732.45 709.63
  L 694.41 709.63
  A 0.56 0.56 0.0 0 0 693.85 710.19
  Z"
/>
<path fill="#101010" d="
  M 757.98 649.20
  L 838.65 649.20
  A 0.35 0.35 0.0 0 1 839.00 649.55
  L 839.00 668.34
  A 0.35 0.35 0.0 0 1 838.65 668.69
  L 809.82 668.69
  A 0.35 0.35 0.0 0 0 809.47 669.04
  L 809.47 745.76
  A 0.35 0.35 0.0 0 1 809.12 746.11
  L 788.32 746.11
  A 0.35 0.35 0.0 0 1 787.97 745.76
  L 787.97 669.03
  A 0.35 0.35 0.0 0 0 787.62 668.68
  L 757.98 668.68
  A 0.35 0.35 0.0 0 1 757.63 668.33
  L 757.63 649.55
  A 0.35 0.35 0.0 0 1 757.98 649.20
  Z"
/>
<path fill="#fbfafa" d="
  M 351.53 666.86
  C 369.79 665.83 381.22 678.74 382.20 696.10
  C 383.19 713.46 373.30 727.58 355.04 728.62
  C 336.79 729.66 325.36 716.74 324.37 699.39
  C 323.39 682.03 333.28 667.90 351.53 666.86
  Z"
/>
<path fill="#fbfafa" d="
  M 446.87 668.96
  A 0.28 0.28 0.0 0 1 447.15 668.68
  L 462.58 668.60
  A 29.51 26.13 -0.3 0 1 492.22 694.57
  L 492.26 700.47
  A 29.51 26.13 -0.3 0 1 462.88 726.76
  L 447.45 726.84
  A 0.28 0.28 0.0 0 1 447.17 726.56
  L 446.87 668.96
  Z"
/>
</svg>
